<svg width="194" height="121" viewBox="0 0 194 121" fill="none" xmlns="http://www.w3.org/2000/svg">
<mask id="mask0_24_1221" style="mask-type:alpha" maskUnits="userSpaceOnUse" x="0" y="0" width="194" height="124">
<g clip-path="url(#clip0_24_1221)">
<g clip-path="url(#clip1_24_1221)">
<path d="M35.9493 118.11C27.8492 120.541 19.368 116.128 17.0061 108.256L4.29128 65.8743C1.92934 58.0014 6.58114 49.6493 14.6812 47.2192C22.7813 44.7891 31.2625 49.2012 33.6244 57.0741L46.3392 99.4554C48.7011 107.328 44.0493 115.68 35.9493 118.11Z" fill="#37B669"/>
<path d="M64.4581 109.557C56.358 111.988 47.8768 107.575 45.5149 99.7026L32.8001 57.3213C30.4381 49.4484 35.0899 41.0963 43.19 38.6662C51.2901 36.2361 59.7713 40.6482 62.1332 48.5211L74.848 90.9024C77.2099 98.7753 72.5581 107.127 64.4581 109.557Z" fill="#37B669"/>
<path d="M92.9688 101.004C84.8687 103.434 76.3876 99.0221 74.0256 91.1493L61.3108 48.768C58.9489 40.8951 63.6007 32.543 71.7007 30.1129C79.8008 27.6828 88.282 32.0949 90.6439 39.9677L103.359 82.349C105.72 90.2222 101.068 98.5743 92.9688 101.004Z" fill="#37B669"/>
<path d="M121.478 92.4512C113.378 94.8813 104.896 90.4692 102.534 82.5963L89.8196 40.215C87.4577 32.3421 92.1095 23.99 100.21 21.5599C108.31 19.1298 116.791 23.5419 119.153 31.4148L131.868 73.7961C134.229 81.6689 129.578 90.0211 121.478 92.4512Z" fill="#37B669"/>
<path d="M149.986 83.8982C141.886 86.3283 133.405 81.9162 131.043 74.0433L118.328 31.662C115.966 23.7891 120.618 15.437 128.718 13.0069C136.818 10.5768 145.3 14.9889 147.662 22.8618L160.376 65.2431C162.738 73.116 158.086 81.4681 149.986 83.8982Z" fill="#37B669"/>
<path d="M178.496 75.345C170.396 77.7751 161.915 73.363 159.553 65.4901L146.838 23.1088C144.476 15.2359 149.128 6.88379 157.228 4.45369C165.328 2.02359 173.809 6.43568 176.171 14.3086L188.886 56.6899C191.247 64.563 186.595 72.9151 178.496 75.345Z" fill="#37B669"/>
</g>
</g>
</mask>
<g mask="url(#mask0_24_1221)">
<rect y="51.6236" width="179.65" height="74.77" transform="rotate(-16.6998 0 51.6236)" fill="#ED5D3A"/>
</g>
<path d="M53.4397 68.2268L56.7835 79.3724L55.4774 79.7643L46.7785 72.8354L46.6697 72.868L49.2951 81.619L47.9454 82.0239L44.6016 70.8784L45.9078 70.4865L54.6349 77.4307L54.7438 77.398L52.1118 68.6252L53.4397 68.2268ZM59.4842 78.5622L56.1404 67.4166L62.867 65.3986L63.2262 66.5959L57.8493 68.209L58.9791 71.975L64.0077 70.4663L64.3669 71.6636L59.3383 73.1722L60.4747 76.96L65.9386 75.3208L66.2978 76.518L59.4842 78.5622ZM70.6679 75.207L64.2765 64.9757L65.6479 64.5643L70.7005 72.943L70.8094 72.9104L70.4588 63.121L71.9826 62.6638L77.0788 71.0295L77.1876 70.9968L76.7935 61.2205L78.1649 60.809L78.4611 72.8689L77.0679 73.2869L71.9434 65.1433L71.8564 65.1694L72.0611 74.789L70.6679 75.207ZM86.7777 61.2623C86.547 60.7304 86.1537 60.3818 85.5979 60.2163C85.042 60.0509 84.4267 60.0694 83.7519 60.2719C83.2585 60.4199 82.8507 60.6292 82.5285 60.8999C82.2099 61.1695 81.9892 61.475 81.8662 61.8164C81.7468 62.1567 81.7405 62.5046 81.8471 62.8602C81.9364 63.1577 82.0839 63.3922 82.2896 63.5638C82.4978 63.7307 82.7357 63.8512 83.0031 63.9252C83.2694 63.9956 83.5395 64.0391 83.8134 64.0558C84.0862 64.0689 84.3342 64.0716 84.5574 64.064L85.7808 64.0291C86.0939 64.0182 86.4483 64.0266 86.8442 64.0542C87.2436 64.0806 87.6414 64.161 88.0376 64.2952C88.4364 64.4248 88.7967 64.637 89.1185 64.932C89.4403 65.2269 89.6796 65.6356 89.8363 66.1581C90.017 66.7603 90.0224 67.3519 89.8526 67.9328C89.6865 68.5126 89.3453 69.0361 88.829 69.5034C88.3163 69.9696 87.6319 70.3312 86.7757 70.5881C85.9775 70.8275 85.2477 70.9061 84.5863 70.8237C83.9285 70.7403 83.3636 70.5182 82.8916 70.1576C82.4232 69.7959 82.0758 69.3168 81.8494 68.7203L83.2426 68.3024C83.4051 68.7123 83.6511 69.0182 83.9805 69.2199C84.3125 69.4169 84.6891 69.5254 85.1103 69.5453C85.5341 69.5606 85.9673 69.5018 86.4099 69.369C86.9251 69.2144 87.3627 68.9922 87.7226 68.7023C88.0814 68.4088 88.3354 68.0756 88.4845 67.7026C88.6325 67.326 88.6456 66.9345 88.5237 66.5282C88.4126 66.1581 88.2189 65.888 87.9424 65.7178C87.666 65.5477 87.3372 65.4406 86.9563 65.3967C86.5753 65.3528 86.1726 65.3352 85.7481 65.344L84.2591 65.3636C83.3133 65.3745 82.5167 65.2239 81.8695 64.9119C81.2222 64.5999 80.7859 64.0684 80.5606 63.3173C80.3734 62.6933 80.3788 62.0985 80.5769 61.5328C80.7775 60.9625 81.1258 60.4625 81.6218 60.033C82.1203 59.5987 82.7251 59.2749 83.4362 59.0615C84.1546 58.846 84.8318 58.7832 85.4678 58.8732C86.1027 58.9595 86.6498 59.175 87.1092 59.5197C87.5721 59.8633 87.897 60.3135 88.0839 60.8705L86.7777 61.2623ZM92.9631 68.5182L89.6194 57.3726L90.969 56.9677L93.9536 66.916L99.1346 65.3617L99.4938 66.5589L92.9631 68.5182ZM101.584 65.932L98.2398 54.7864L104.966 52.7684L105.325 53.9657L99.9486 55.5788L101.078 59.3448L106.107 57.8361L106.466 59.0334L101.438 60.542L102.574 64.3298L108.038 62.6906L108.397 63.8878L101.584 65.932ZM107.149 53.4187L106.789 52.2214L115.149 49.7136L115.508 50.9109L112.003 51.9623L114.988 61.9106L113.638 62.3155L110.653 52.3672L107.149 53.4187ZM116.981 50.4688L116.622 49.2715L124.981 46.7637L125.34 47.961L121.836 49.0124L124.82 58.9607L123.471 59.3656L120.486 49.4173L116.981 50.4688ZM130.408 57.2844L127.064 46.1388L133.791 44.1207L134.15 45.318L128.773 46.9311L129.903 50.6971L134.932 49.1885L135.291 50.3858L130.262 51.8944L131.399 55.6822L136.862 54.0429L137.222 55.2402L130.408 57.2844ZM139.567 54.5365L136.223 43.3909L139.989 42.2611C140.86 41.9999 141.62 41.9342 142.268 42.0641C142.914 42.1903 143.449 42.4708 143.872 42.9054C144.296 43.3401 144.606 43.8857 144.803 44.5424C145 45.1991 145.04 45.8217 144.924 46.4102C144.808 46.9987 144.516 47.5213 144.048 47.9781C143.579 48.4312 142.912 48.7873 142.049 49.0464L139.001 49.9607L138.635 48.7417L141.64 47.8404C142.235 47.6619 142.687 47.4312 142.998 47.1482C143.312 46.8641 143.503 46.5379 143.57 46.1696C143.64 45.7967 143.609 45.3871 143.475 44.9408C143.341 44.4945 143.14 44.1295 142.873 43.8458C142.606 43.5621 142.262 43.3845 141.841 43.313C141.419 43.238 140.907 43.2907 140.305 43.4714L137.932 44.1833L140.917 54.1316L139.567 54.5365ZM143.311 47.9558L147.556 52.1397L145.989 52.6099L141.788 48.4129L143.311 47.9558Z" fill="white"/>
<path d="M45.0904 77.4112L146.508 46.9849L146.822 48.0298L45.4039 78.4561L45.0904 77.4112Z" fill="white"/>
<defs>
<clipPath id="clip0_24_1221">
<rect width="179.65" height="74.77" fill="white" transform="translate(0 51.6236) rotate(-16.6998)"/>
</clipPath>
<clipPath id="clip1_24_1221">
<rect width="179.62" height="74.77" fill="white" transform="translate(0.0146484 51.6193) rotate(-16.6998)"/>
</clipPath>
</defs>
</svg>
